<svg width="280" height="280" viewBox="0 0 280 280" fill="none" xmlns="http://www.w3.org/2000/svg">
<g clip-path="url(#clip0)">
<path d="M70.7877 64.6343C69.7412 62.8016 69.1315 60.7522 69.006 58.6455C68.6317 47.3341 63.7658 28.0501 86.411 23.4611C109.056 18.8722 107.933 20.7212 107.933 20.7212" stroke="#1C2F33" stroke-miterlimit="10" stroke-linecap="round"/>
<path d="M91.0895 84.727C95.224 84.727 98.5756 81.3753 98.5756 77.2409C98.5756 73.1065 95.224 69.7549 91.0895 69.7549C86.9551 69.7549 83.6035 73.1065 83.6035 77.2409C83.6035 81.3753 86.9551 84.727 91.0895 84.727Z" fill="#DCDCDC"/>
<path d="M126.274 140.124H51.4141V214.984H126.274V140.124Z" fill="#FFDE62"/>
<path d="M180.174 62.0967H40.148L36.4424 188.783L182.195 190.235L180.174 62.0967Z" stroke="black" stroke-miterlimit="10"/>
<path d="M96.2254 94.3241C96.2254 94.3241 97.8274 80.984 94.833 76.4924C91.8386 72.0008 85.8498 68.2578 77.6152 63.7661C69.3806 59.2745 70.8778 65.2633 70.8778 65.2633C70.8778 65.2633 71.6264 69.0064 73.1236 69.755C71.6037 69.8406 70.0976 70.0917 68.632 70.5036C65.6376 71.2522 64.1404 73.498 66.3862 75.7438C66.3862 75.7438 62.6432 78.7382 66.3862 81.7326C66.3862 81.7326 67.1348 82.4812 65.6376 83.2298C64.1404 83.9784 64.889 86.9728 66.3862 86.9728C67.8834 86.9728 67.1348 88.47 67.1348 88.47C67.1348 88.47 64.889 92.213 68.632 92.9616L76.8666 93.7102C76.8666 93.7102 96.1206 94.1893 96.2254 94.3241Z" fill="#FCC77B"/>
<path d="M172.313 70.1294C172.313 70.1294 161.833 83.6042 164.827 93.3361C164.827 93.3361 167.073 97.8277 174.559 97.8277C174.559 97.8277 175.308 103.816 173.062 105.314C171.715 106.184 170.17 106.699 168.57 106.811L173.81 119.537L195.52 109.057L194.023 106.811C194.023 106.811 190.28 105.314 190.28 103.816C190.28 102.319 194.023 91.8388 194.023 91.8388L194.771 76.1182L179.051 71.6266L172.313 70.1294Z" fill="#FCC77B"/>
<path d="M185.039 76.8668C185.039 76.8668 175.308 78.364 171.565 73.8724C167.822 69.3808 174.559 61.1461 179.799 67.135H182.045C182.045 67.135 183.692 50.2764 197.766 55.9059C201.509 57.4031 203.754 61.1461 203.006 64.8891C203.006 64.8891 208.995 64.1405 208.995 67.8836C208.995 71.6266 208.995 73.8724 205.252 75.3696C205.252 75.3696 208.995 83.6042 201.509 84.3528L197.017 83.6042C197.017 83.6042 197.766 88.8444 193.274 94.0847C193.274 94.0847 187.285 95.5819 185.788 91.0903C184.291 86.5986 189.194 82.2567 189.741 80.3104C190.287 78.364 187.285 76.8668 185.039 76.8668Z" fill="#1C2F33"/>
<path d="M279.738 259.9C279.738 259.9 223.967 289.47 261.771 197.766C261.771 197.766 276.796 140.124 261.771 121.783C246.747 103.442 238.939 122.157 242.48 128.52C246.021 134.883 258.455 151.974 264.586 116.483C270.717 80.9915 216.496 70.0095 206.944 98.7035C197.392 127.397 184.666 175.308 174.185 183.543C163.705 191.777 125.631 146.988 125.631 146.988C125.631 146.988 137.878 138.626 133.199 121.783C128.52 104.939 106.811 113.938 94.459 123.28C82.1071 132.623 83.4545 139.368 90.2668 168.196C91.8164 174.762 91.8688 169.753 92.5875 170.816C95.0129 174.425 94.459 161.459 94.459 161.459C94.459 161.459 69.3808 165.037 60.3976 145.469C51.4144 125.9 61.1462 110.18 74.2467 93.336" stroke="#1C2F33" stroke-miterlimit="10"/>
<path d="M256.156 187.66C246.425 192.151 241.184 186.911 241.184 186.911L218.726 168.945L221.721 216.107L141.62 192.151L138.581 149.81C138.581 149.81 101.196 158.464 95.207 158.464C89.2181 158.464 83.2293 149.481 81.7321 141.995C80.2873 134.756 74.6354 96.0158 74.2461 93.4705V93.3358C84.3747 89.0687 92.6018 90.1243 96.502 91.09L97.0785 91.2397C97.7148 91.4041 98.3399 91.6091 98.95 91.8535C98.95 91.8535 99.5938 97.6253 101.473 108.585C101.622 109.461 101.78 110.374 101.944 111.317C104.19 124.043 106.436 123.295 106.436 123.295L115.419 121.049C121.408 119.552 131.888 114.312 140.123 109.82C148.358 105.328 170.816 106.077 170.816 106.077C170.067 115.809 179.904 114.933 179.904 114.933C188.992 113.308 194.397 106.451 194.397 106.451C206.749 107.559 220.224 114.297 227.238 119.537C234.252 124.777 256.156 153.224 261.397 161.459C266.637 169.693 265.888 183.168 256.156 187.66Z" fill="#30CAEC"/>
<path opacity="0.2" d="M207.123 137.129C210.844 137.129 213.86 134.113 213.86 130.392C213.86 126.671 210.844 123.654 207.123 123.654C203.402 123.654 200.386 126.671 200.386 130.392C200.386 134.113 203.402 137.129 207.123 137.129Z" fill="#FD625D"/>
<path d="M98.5757 237.442L87.3466 259.152L74.2461 238.655L85.1008 224.716L98.5757 237.442Z" fill="#C66BA7"/>
<path opacity="0.2" d="M177.928 187.286C182.476 187.286 186.163 183.599 186.163 179.051C186.163 174.503 182.476 170.816 177.928 170.816C173.38 170.816 169.693 174.503 169.693 179.051C169.693 183.599 173.38 187.286 177.928 187.286Z" fill="#FD625D"/>
<path d="M221.235 208.389C221.235 208.389 140.498 152.85 133.012 149.107C125.526 145.364 113.548 146.112 108.308 155.096L96.5999 156.219L60.3975 211.99L100.822 242.682L118.04 220.973L160.71 269.632H221.804C221.804 269.632 224.341 265.889 224.341 262.146C224.341 258.403 221.235 208.389 221.235 208.389Z" fill="#1C2F33"/>
<path d="M221.721 138.252C221.721 138.252 214.235 142.744 207.497 156.218C207.497 156.218 196.268 148.732 192.525 146.487C188.782 144.241 188.034 144.241 185.039 144.241C185.039 144.241 179.799 144.241 183.542 139.001C183.542 139.001 184.291 139.001 183.542 136.755C182.794 134.509 185.039 131.515 185.788 131.515C185.788 131.515 185.788 127.023 191.028 127.023C191.028 127.023 191.028 121.783 196.268 121.783C201.509 121.783 203.754 124.029 203.754 124.029L221.721 138.252Z" fill="#FCC77B"/>
<path d="M199.264 128.52C199.264 128.52 195.52 125.526 191.777 127.023" stroke="black" stroke-miterlimit="10" stroke-linecap="round"/>
<path d="M192.9 139.375C192.9 139.375 188.408 137.129 185.414 137.877" stroke="black" stroke-miterlimit="10" stroke-linecap="round"/>
<path d="M194.397 132.637C194.397 132.637 187.66 130.392 185.788 131.515" stroke="black" stroke-miterlimit="10" stroke-linecap="round"/>
<path d="M189.905 144.615L186.911 141.621" stroke="black" stroke-miterlimit="10" stroke-linecap="round"/>
<path d="M94.4583 176.431L69.0059 214.609" stroke="white" stroke-width="2" stroke-miterlimit="10" stroke-linecap="round"/>
<path d="M177.179 261.398C177.179 261.398 144.24 235.945 130.017 203.755L118.039 219.476" stroke="white" stroke-width="2" stroke-miterlimit="10" stroke-linecap="round"/>
<path d="M200.761 197.392C200.761 197.392 194.023 221.347 214.235 234.822" stroke="white" stroke-width="2" stroke-miterlimit="10" stroke-linecap="round"/>
<path d="M95.207 174.934L104.19 161.459" stroke="white" stroke-width="2" stroke-miterlimit="10" stroke-linecap="round"/>
<path d="M104.939 159.962L106.437 157.716" stroke="white" stroke-width="2" stroke-miterlimit="10" stroke-linecap="round"/>
<path d="M64.0951 266.533C64.0951 266.533 60.397 277.866 54.4081 279.364L0.508789 220.224C0.508789 220.224 9.69415 210.238 17.4572 208.868C17.4572 208.868 24.1946 209.744 28.0648 214.609L64.0951 258.133V266.533Z" stroke="black" stroke-miterlimit="10"/>
<path d="M76.8668 219.476C76.8668 219.476 73.8724 206.001 71.6266 217.23L70.1294 226.213C70.1294 226.213 52.657 218.727 49.4155 214.61C46.1741 210.492 39.4366 206.001 32.6992 211.241C25.9618 216.481 19.9729 218.727 25.2132 223.219C30.4534 227.71 54.4087 256.157 54.4087 256.157L75.3696 278.615C75.3696 278.615 78.364 279.147 81.7327 273.637C85.1014 268.127 90.2668 259.151 90.2668 259.151C90.2668 259.151 78.3565 252.414 79.1051 241.934C79.8537 231.453 76.8668 219.476 76.8668 219.476Z" fill="white" stroke="black" stroke-miterlimit="10"/>
<path d="M61.7746 271.87C61.7746 271.87 50.336 269.625 45.6348 261.39C40.9335 253.155 37.1905 247.166 34.1961 247.166C31.2017 247.166 13.6994 225.457 11.9701 224.708C10.2408 223.96 7.27637 214.101 7.27637 214.101" stroke="black" stroke-miterlimit="10"/>
<path d="M82.8029 271.87C79.1434 271.196 75.6844 269.701 72.6864 267.497C69.6885 265.292 67.2297 262.436 65.4953 259.144C59.6487 247.915 55.9057 247.915 53.6599 247.166C51.4141 246.418 31.2018 223.96 30.4532 221.714C29.767 219.206 29.2073 216.665 28.7764 214.101" stroke="black" stroke-miterlimit="10"/>
<path d="M33.3506 210.769C33.3506 210.769 36.4423 222.47 42.4312 226.962C45.9802 229.608 49.242 232.618 52.163 235.945C52.163 235.945 63.6765 235.196 66.1544 224.716" stroke="black" stroke-miterlimit="10"/>
<path d="M85.8421 256.794C85.8421 256.794 85.8421 257.654 80.6019 255.409C75.3617 253.163 68.3848 263.516 68.3848 263.516" stroke="black" stroke-miterlimit="10"/>
<path d="M75.3698 71.252C75.3698 71.252 83.6043 76.4921 67.8838 76.4921" stroke="black" stroke-miterlimit="10"/>
<path d="M77.5254 73.8721C77.5254 73.8721 83.6041 79.4866 85.1013 79.4866" stroke="black" stroke-miterlimit="10"/>
<path d="M75.3695 75.7734C75.3695 75.7734 82.1072 79.3892 75.3695 82.0617C74.6209 81.7323 81.3585 86.2389 75.3695 87.3543C75.3695 87.3543 78.7833 91.3368 76.3278 92.5271" stroke="black" stroke-miterlimit="10"/>
<path d="M67.8838 82.2491L75.3622 82.062" stroke="black" stroke-miterlimit="10"/>
<path d="M68.6318 87.7213L75.3618 87.3545" stroke="black" stroke-miterlimit="10"/>
<path d="M175.959 84.7644H176.034C176.185 84.7732 176.335 84.7395 176.468 84.6671C176.605 84.6215 176.729 84.5416 176.827 84.435C176.938 84.3404 177.019 84.2155 177.059 84.0757C177.129 83.942 177.163 83.7923 177.157 83.6415L177.112 83.3421C177.051 83.157 176.946 82.9898 176.805 82.8555L176.58 82.6833C176.408 82.5805 176.212 82.5261 176.011 82.5261H175.936C175.788 82.5199 175.641 82.5535 175.51 82.6235C175.37 82.6699 175.245 82.7496 175.143 82.8555C175.039 82.9556 174.959 83.0786 174.911 83.2148C174.845 83.35 174.812 83.4987 174.814 83.649L174.858 83.9485C174.908 84.1355 175.006 84.3061 175.143 84.4425L175.375 84.6222C175.546 84.7205 175.739 84.7721 175.936 84.7719L175.959 84.7644Z" fill="black"/>
<path opacity="0.2" d="M142.744 138.626C147.291 138.626 150.978 134.939 150.978 130.391C150.978 125.844 147.291 122.157 142.744 122.157C138.196 122.157 134.509 125.844 134.509 130.391C134.509 134.939 138.196 138.626 142.744 138.626Z" fill="#FD625D"/>
<path d="M166.227 84.7644H166.302C166.453 84.7732 166.604 84.7395 166.736 84.6671C166.874 84.6215 166.998 84.5416 167.096 84.435C167.206 84.3404 167.287 84.2155 167.328 84.0757C167.398 83.942 167.431 83.7923 167.425 83.6415L167.38 83.3421C167.32 83.157 167.214 82.9898 167.073 82.8555L166.849 82.6833C166.677 82.5805 166.48 82.5261 166.28 82.5261H166.205C166.057 82.5199 165.909 82.5535 165.778 82.6235C165.639 82.6699 165.513 82.7496 165.411 82.8555C165.307 82.9556 165.228 83.0786 165.179 83.2148C165.114 83.35 165.08 83.4987 165.082 83.649L165.127 83.9485C165.176 84.1355 165.274 84.3061 165.411 84.4425L165.644 84.6222C165.814 84.7205 166.008 84.7721 166.205 84.7719L166.227 84.7644Z" fill="#FD625D"/>
<path d="M167.822 81.5754C168.12 81.5754 168.405 81.4571 168.616 81.2465C168.827 81.0359 168.945 80.7503 168.945 80.4525C168.945 80.1547 168.827 79.8691 168.616 79.6585C168.405 79.4479 168.12 79.3296 167.822 79.3296C167.524 79.3296 167.239 79.4479 167.028 79.6585C166.818 79.8691 166.699 80.1547 166.699 80.4525C166.699 80.7503 166.818 81.0359 167.028 81.2465C167.239 81.4571 167.524 81.5754 167.822 81.5754Z" fill="black"/>
<path d="M176.057 79.4566C176.057 79.4566 178.864 79.1721 179.53 80.4523" stroke="black" stroke-miterlimit="10" stroke-linecap="round"/>
<path d="M166.699 76.4923C166.699 76.4923 168.945 75.7437 170.442 77.2409" stroke="black" stroke-miterlimit="10" stroke-linecap="round"/>
<path d="M187.031 84.697C187.031 84.697 191.403 81.6353 191.777 86.5536C192.151 91.4719 187.66 91.674 186.163 91.9435C184.665 92.213 185.646 84.6671 187.031 84.697Z" fill="#FCC77B"/>
<path d="M186.911 103.442C190.632 103.442 193.649 100.426 193.649 96.7047C193.649 92.9837 190.632 89.9673 186.911 89.9673C183.19 89.9673 180.174 92.9837 180.174 96.7047C180.174 100.426 183.19 103.442 186.911 103.442Z" stroke="black" stroke-miterlimit="10" stroke-linecap="round"/>
<path d="M171.939 90.8806L168.091 89.9673C168.091 89.9673 168.944 94.7809 171.939 90.8806Z" stroke="black" stroke-miterlimit="10"/>
<path d="M224.341 139L253.851 159.961" stroke="black" stroke-miterlimit="10"/>
<path d="M248.185 149.481L256.127 157.716" stroke="black" stroke-miterlimit="10"/>
<path opacity="0.2" d="M235.571 179.051C240.118 179.051 243.805 175.364 243.805 170.816C243.805 166.268 240.118 162.582 235.571 162.582C231.023 162.582 227.336 166.268 227.336 170.816C227.336 175.364 231.023 179.051 235.571 179.051Z" fill="#FD625D"/>
<path d="M53.6598 84.727C57.7942 84.727 61.1458 81.3753 61.1458 77.2409C61.1458 73.1065 57.7942 69.7549 53.6598 69.7549C49.5254 69.7549 46.1738 73.1065 46.1738 77.2409C46.1738 81.3753 49.5254 84.727 53.6598 84.727Z" fill="#DCDCDC"/>
<path d="M144.241 48.0455C144.241 48.0455 108.615 52.1254 107.717 22.0166C107.717 22.0166 109.484 -1.63179 135.842 1.87167C162.2 5.37514 154.722 6.12374 154.722 6.12374L144.241 48.0455Z" fill="white" stroke="#1C2F33" stroke-miterlimit="10"/>
<path d="M179.738 21.7909L156.701 18.9868L155.887 25.6749L178.924 28.4789L179.738 21.7909Z" fill="#1C2F33"/>
<path d="M175.995 36.7621L152.958 33.958L152.144 40.6461L175.181 43.4501L175.995 36.7621Z" fill="#1C2F33"/>
<path d="M207.124 30.8052L212.364 35.2968V26.9798H221.721L214.422 23.7159L219.101 12.8612L210.867 18.1014L207.124 10.3833L204.878 18.1014L199.263 15.7732L200.386 20.3397L194.397 26.9798C194.397 26.9798 198.889 26.1264 200.386 26.9798C201.883 27.8333 199.263 37.0486 199.263 37.0486L207.124 30.8052Z" fill="#FFDE62"/>
<path d="M235.945 42.3187L237.165 43.3668V41.4279H239.343L237.644 40.6793L238.729 38.1565L236.813 39.3767L235.945 37.5576L235.421 39.3617L234.111 38.8153L234.373 39.8783L232.95 41.4279C233.408 41.3233 233.884 41.3233 234.343 41.4279C234.694 41.6225 234.081 43.771 234.081 43.771L235.945 42.3187Z" fill="#FEDC4D"/>
<path d="M128.655 99.6987H180.878" stroke="black" stroke-width="2" stroke-miterlimit="10"/>
<path d="M118.039 107.118L162.207 108.682" stroke="black" stroke-width="2" stroke-miterlimit="10"/>
<path d="M239.096 68.5345C239.096 68.5345 245.999 62.8526 239.096 60.8763C232.193 58.9 237.763 69.9419 239.096 68.5345Z" fill="#7D68EB"/>
<path d="M247.33 70.032C247.33 70.032 254.233 64.3502 247.33 62.3739C240.428 60.3975 245.998 71.4394 247.33 70.032Z" fill="#FFDE62"/>
<path d="M255.566 70.032C255.566 70.032 262.469 64.3502 255.566 62.3739C248.663 60.3975 254.233 71.4394 255.566 70.032Z" fill="#FD625D"/>
<path d="M175.959 88.5071H176.034C176.185 88.5159 176.335 88.4822 176.468 88.4098C176.605 88.3642 176.729 88.2844 176.827 88.1777C176.938 88.0831 177.019 87.9582 177.059 87.8184C177.129 87.6847 177.163 87.535 177.157 87.3842L177.112 87.0848C177.051 86.8997 176.946 86.7325 176.805 86.5982L176.58 86.426C176.408 86.3231 176.212 86.2688 176.011 86.2688H175.936C175.788 86.2625 175.641 86.2961 175.51 86.3661C175.37 86.4126 175.245 86.4923 175.143 86.5982C175.039 86.6983 174.959 86.8213 174.911 86.9575C174.845 87.0927 174.812 87.2414 174.814 87.3917L174.858 87.6912C174.908 87.8783 175.006 88.0488 175.143 88.1852L175.375 88.3649C175.546 88.4632 175.739 88.5148 175.936 88.5146L175.959 88.5071Z" fill="#FD625D"/>
<path d="M171.565 86.5986L168.368 85.9848L171.565 81.3584V86.5986Z" fill="#FFDE62"/>
<path d="M171.19 81.7324L168.57 86.0594L171.19 86.4786" stroke="black" stroke-miterlimit="10" stroke-linecap="round"/>
<path d="M186.163 87.7212C186.163 87.7212 188.97 83.9782 189.434 87.7212" stroke="black" stroke-miterlimit="10" stroke-linecap="round"/>
<path d="M159.213 18.8497L162.207 3.12906L150.978 0.456543L140.476 51.8033L151.338 53.5026L159.213 18.8497Z" fill="white" stroke="#1C2F33" stroke-miterlimit="10"/>
</g>
<defs>
<clipPath id="clip0">
<rect width="279.91" height="279.783" fill="white"/>
</clipPath>
</defs>
</svg>
