<svg width="250" height="261" viewBox="0 0 250 261" fill="none" xmlns="http://www.w3.org/2000/svg">
<g clip-path="url(#clip0)">
<path d="M6.90234 59.0781H103.085C103.085 59.0781 101.69 41.9752 84.0787 51.905C84.0787 51.905 79.3373 35.4186 71.8865 34.0639C64.4357 32.7092 57.6623 34.0639 54.2756 44.9013C54.2756 44.9013 46.1475 31.3545 35.9874 42.8693C35.9874 42.8693 33.278 46.256 32.6007 48.9654C32.5736 48.9654 19.1555 44.8065 6.90234 59.0781Z" fill="#EEEDED"/>
<path d="M250 83.5096L163.774 82.4936C163.774 82.4936 166.057 57.8925 171.11 51.3968C176.163 44.9011 190.394 40.1665 195.813 55.7453L197.845 63.8734C197.845 63.8734 205.973 46.2626 215.456 57.1C215.456 57.1 221.674 63.2977 221.613 70.0169C221.613 70.0102 237.13 62.512 250 83.5096Z" fill="#EEEDED"/>
<path d="M234.422 92.3145H77.2783V120.085H234.422V92.3145Z" fill="black"/>
<path d="M34.0088 150.465V219.94L228.325 219.655L189.716 152.592L34.0088 150.465Z" fill="#EEEDED"/>
<path d="M126.046 113.313C129.787 113.313 132.819 110.28 132.819 106.539C132.819 102.798 129.787 99.7656 126.046 99.7656C122.305 99.7656 119.272 102.798 119.272 106.539C119.272 110.28 122.305 113.313 126.046 113.313Z" fill="white"/>
<path d="M234.421 92.3081H77.014L75.2461 231.17L234.421 226.442V92.3081Z" stroke="black" stroke-width="2" stroke-miterlimit="10"/>
<path d="M92.1797 113.313C95.9205 113.313 98.9531 110.28 98.9531 106.539C98.9531 102.798 95.9205 99.7656 92.1797 99.7656C88.4388 99.7656 85.4062 102.798 85.4062 106.539C85.4062 110.28 88.4388 113.313 92.1797 113.313Z" fill="white"/>
<path d="M87.7773 96.7177C87.7773 96.7177 68.8117 92.6536 66.7797 94.6857C64.7476 96.7177 52.2168 128.891 52.2168 136.342C52.2168 143.793 52.8941 166.822 63.0543 172.919C73.2144 179.015 84.7292 187.143 112.5 176.983C112.5 176.983 119.877 173.447 122.958 168.78L150.174 228.799L234.422 226.449C234.422 226.449 236.454 216.289 235.099 213.579L235.898 213.633V187.962C235.898 187.962 233.745 162.779 229.68 156.005C225.616 149.232 214.826 140.589 209.022 131.357C203.217 122.125 190.395 110.603 172.784 107.894C155.173 105.184 137.562 105.862 120.628 117.377C120.628 117.377 113.855 120.086 108.436 133.633C103.017 147.18 82.6972 146.17 91.164 127.367C91.164 127.367 96.9214 104.9 96.244 101.317C95.5667 97.7337 87.7773 96.7177 87.7773 96.7177Z" fill="#30CAEC"/>
<path d="M51.5385 24.5806H19.5206C19.5206 24.5806 2.09257 25.2579 0.73789 44.2235C-0.616792 63.189 21.7355 64.5437 21.7355 64.5437H46.8581C47.4744 64.5437 56.2799 75.3812 56.2799 75.3812L54.9252 64.5437C54.9252 64.5437 64.408 65.8984 67.1173 57.7703C69.8267 49.6422 75.2454 24.5806 51.5385 24.5806Z" stroke="black" stroke-width="2" stroke-miterlimit="10"/>
<path d="M123.56 0.677246H108.706C108.706 0.677246 100.646 0.995596 99.9682 9.79427C99.2908 18.5929 109.708 19.2161 109.708 19.2161H121.359C121.643 19.2161 125.727 24.242 125.727 24.242L125.098 19.2161C125.098 19.2161 129.5 19.846 130.753 16.0732C132.006 12.3004 134.553 0.677246 123.56 0.677246Z" stroke="#929495" stroke-width="2" stroke-miterlimit="10"/>
<path d="M63.9144 102.814H47.3941C47.3941 102.814 38.399 103.2 37.7013 114.078C37.0037 124.956 48.5388 125.728 48.5388 125.728H61.4963C61.8147 125.728 66.3596 131.94 66.3596 131.94L65.6823 125.728C65.6823 125.728 70.5727 126.501 71.9748 121.841C73.3769 117.18 76.1472 102.814 63.9144 102.814Z" stroke="black" stroke-width="2" stroke-miterlimit="10"/>
<path d="M10.8984 39.4824H57.1202" stroke="black" stroke-miterlimit="10"/>
<path d="M10.8984 49.4663H41.7242" stroke="black" stroke-miterlimit="10"/>
<path d="M142.303 53.0225L128.079 71.988L146.367 84.1802V104.521L157.205 101.114L174.138 79.4388L168.72 80.7934L169.397 71.988H160.591L154.834 60.2429L144.335 61.8279L142.303 53.0225Z" fill="black"/>
<path d="M145.012 122.118C136.883 122.795 131.167 115.344 131.167 115.344L132.142 103.829C132.142 103.829 118.595 101.12 119.273 93.6693C119.95 86.2185 120.891 80.2241 129.561 70.0098C129.561 70.0098 136.206 76.7358 141.625 76.0584C147.044 75.3811 153.817 77.4131 154.833 78.7678C154.833 78.7678 156.526 82.1545 151.785 85.5412C147.044 88.9279 146.366 98.4107 152.462 100.443C158.558 102.475 157.204 101.12 157.204 101.12C157.204 101.12 157.204 107.216 159.236 110.603C161.268 113.99 153.14 121.44 145.012 122.118Z" fill="#FCC77B"/>
<path d="M157.204 89.6056C157.204 89.6056 156.35 83.374 149.665 87.8445C149.665 87.8445 146.658 93.8525 148.541 96.4738C150.424 99.0952 157.204 94.347 157.204 89.6056Z" fill="#FCC77B"/>
<path d="M153.248 91.7188V88.6099L149.753 90.9534" stroke="black" stroke-miterlimit="10" stroke-linecap="round"/>
<path d="M69.6375 96.3112V93.2293C69.6375 93.2293 69.5562 90.7299 68.6756 90.1677C67.7951 89.6055 67.409 83.7533 69.6375 81.938C71.8659 80.1227 82.6966 55.7384 82.6966 55.7384C82.6966 55.7384 84.0513 53.0291 85.7447 53.0291C87.438 53.0291 86.0833 59.8025 86.0833 59.8025C86.0833 59.8025 89.2194 53.0291 90.0255 53.0291C90.8315 53.0291 92.1794 52.3517 92.1794 57.0931C92.1794 57.0931 94.8888 53.7064 95.5661 53.7064C96.2435 53.7064 98.2755 54.3837 97.5982 57.7705C97.5982 57.7705 100.308 54.3837 101.662 55.0611C103.017 55.7384 103.017 59.8025 103.017 60.4798V61.1572C103.017 61.1572 101.249 73.3493 98.4042 78.7681C98.4042 78.7681 106.404 75.3814 107.758 76.0587C109.113 76.736 109.79 79.4454 106.404 82.1548C103.017 84.8641 94.7262 93.4732 94.1302 100.68C93.5341 107.887 69.6375 96.3112 69.6375 96.3112Z" fill="#FCC77B"/>
<path d="M96.2435 61.1572L93.5342 70.64" stroke="black" stroke-width="2" stroke-miterlimit="10" stroke-linecap="round"/>
<path d="M91.1632 59.4639L87.3701 70.01" stroke="black" stroke-width="2" stroke-miterlimit="10" stroke-linecap="round"/>
<path d="M85.0672 62.1733L83.0352 68.9468" stroke="black" stroke-width="2" stroke-miterlimit="10" stroke-linecap="round"/>
<path d="M97.2595 79.1064C97.2595 79.1064 86.4221 83.1705 85.0674 85.8799" stroke="black" stroke-width="2" stroke-miterlimit="10" stroke-linecap="round"/>
<path d="M213.763 209.834C213.763 209.834 215.795 215.828 213.763 219.947C213.763 219.947 211.392 221.01 209.36 221.687C207.328 222.365 197.567 225.752 194.316 231.17C194.316 231.17 192.426 235.234 196.49 233.202C196.49 233.202 192.426 241.33 191.749 244.04C191.072 246.749 191.072 251.491 195.136 248.104C195.136 248.104 193.781 255.555 197.168 254.2C197.168 254.2 200.554 252.845 201.232 252.168C201.232 252.168 199.877 256.909 201.232 257.587C202.586 258.264 205.296 256.909 206.65 254.877L208.005 253.523C208.005 253.523 206.65 259.619 208.005 260.296C209.36 260.973 211.168 260.973 214.663 256.564C218.158 252.154 226.971 241.33 226.971 241.33C226.971 241.33 231.035 237.266 232.389 233.202C233.744 229.138 236.454 220.333 235.099 213.559L213.763 209.834Z" fill="#FCC77B"/>
<path d="M205.973 225.751C205.973 225.751 198.522 230.493 197.845 231.847" stroke="black" stroke-width="2" stroke-miterlimit="10" stroke-linecap="round"/>
<path d="M201.909 238.77C201.909 238.77 196.151 245.055 196.151 246.41" stroke="black" stroke-width="2" stroke-miterlimit="10" stroke-linecap="round"/>
<path d="M209.698 240.992C209.698 240.992 204.279 247.088 203.602 249.12" stroke="black" stroke-width="2" stroke-miterlimit="10" stroke-linecap="round"/>
<path d="M213.437 245.056C213.437 245.056 209.698 250.19 209.698 251.687" stroke="black" stroke-width="2" stroke-miterlimit="10" stroke-linecap="round"/>
<path opacity="0.2" d="M175.9 177.458L160.278 182.124L162.265 188.776L177.887 184.11L175.9 177.458Z" fill="#FD625D"/>
<path opacity="0.2" d="M194.669 219.503L187.709 204.76L181.431 207.724L188.39 222.467L194.669 219.503Z" fill="#FD625D"/>
<path opacity="0.2" d="M222.895 196.728L206.665 195.176L206.004 202.087L222.234 203.639L222.895 196.728Z" fill="#FD625D"/>
<path opacity="0.2" d="M235.437 183.417L224.762 173.833L228.758 168.15L234.759 175.289L235.437 183.417Z" fill="#FD625D"/>
<path opacity="0.2" d="M209.38 141.862L202.424 127.117L204.957 125.836L215.117 138.706L209.38 141.862Z" fill="#FD625D"/>
<path opacity="0.2" d="M164.288 125.808L179.91 121.142L177.923 114.49L162.301 119.156L164.288 125.808Z" fill="#FD625D"/>
<path d="M133.375 128.106L134.513 118.386L140.609 121.772L140.304 128.451L133.375 128.106Z" fill="#FAB751"/>
<path opacity="0.2" d="M197.049 176.414L203.091 161.271L196.642 158.698L190.601 173.841L197.049 176.414Z" fill="#FD625D"/>
<path opacity="0.2" d="M146.109 163.893L131.418 156.823L128.407 163.079L143.098 170.149L146.109 163.893Z" fill="#FD625D"/>
<path opacity="0.2" d="M89.8086 182.062L91.8406 173.704L98.5735 175.397L96.5821 180.708L89.8086 182.062Z" fill="#FD625D"/>
<path opacity="0.2" d="M56.6184 164.445L55.2637 159.48L61.9964 161.173L60.0051 170.541L56.6184 164.445Z" fill="#FD625D"/>
<path opacity="0.2" d="M77.7598 152.06L93.9004 149.614L92.859 142.741L76.7184 145.186L77.7598 152.06Z" fill="#FD625D"/>
<path opacity="0.2" d="M62.7156 102.807L72.2458 107.298L69.0217 113.448L60.6836 108.903L62.7156 102.807Z" fill="#FD625D"/>
<path opacity="0.2" d="M95.9051 104.162L93.1957 120.418L88.2715 118.176L92.8571 102.536L95.9051 104.162Z" fill="#FD625D"/>
<path opacity="0.2" d="M146.746 208.953L141.287 209.156L137.9 201.706L146.746 202.01V208.953Z" fill="#FD625D"/>
<path d="M119.246 135.069C119.246 135.069 119.856 161.519 121.955 163.517" stroke="black" stroke-miterlimit="10"/>
<path d="M167.364 138.374C167.364 138.374 171.625 145.96 176.61 149.279" stroke="black" stroke-miterlimit="10"/>
<path d="M171.089 150.471C171.089 150.471 203.92 166.179 205.952 177.68C207.984 189.181 210.693 202.017 210.693 202.017" stroke="black" stroke-miterlimit="10"/>
<path d="M109.112 113.313C112.853 113.313 115.886 110.28 115.886 106.539C115.886 102.798 112.853 99.7656 109.112 99.7656C105.371 99.7656 102.339 102.798 102.339 106.539C102.339 110.28 105.371 113.313 109.112 113.313Z" fill="white"/>
<path d="M135.794 86.0293C137.975 86.0293 137.981 82.6426 135.794 82.6426C133.606 82.6426 133.613 86.0293 135.794 86.0293Z" fill="black"/>
<path d="M125.105 80.6377C127.279 80.6377 127.286 77.251 125.105 77.251C122.924 77.251 122.917 80.6377 125.105 80.6377Z" fill="black"/>
<path d="M135.969 92.0171C138.144 92.0171 138.15 88.6304 135.969 88.6304C133.788 88.6304 133.782 92.0171 135.969 92.0171Z" fill="#DA1218"/>
<path d="M122.789 85.5146C124.97 85.5146 124.977 82.1279 122.789 82.1279C120.601 82.1279 120.608 85.5146 122.789 85.5146Z" fill="#DA1218"/>
<path d="M130.279 82.4868L125.098 87.1943L130.279 89.4634V82.4868Z" fill="#FFDE62"/>
<path d="M130.279 82.4868L125.098 87.1943L130.279 89.4634" stroke="black" stroke-miterlimit="10" stroke-linecap="round"/>
<path d="M124.015 90.96L129.508 94.1164C129.508 94.1164 124.692 97.7334 124.015 90.96Z" stroke="black" stroke-miterlimit="10" stroke-linecap="round"/>
<path d="M128.756 74.7043C128.756 74.7043 126.047 72.4827 124.015 73.2548" stroke="black" stroke-miterlimit="10" stroke-linecap="round"/>
<path d="M136.545 78.7749C136.545 78.7749 140.927 78.7749 140.927 80.8069" stroke="black" stroke-miterlimit="10" stroke-linecap="round"/>
<path d="M202.484 44.0476C200.141 38.0193 199.24 31.5168 197.194 25.3801C195.149 19.2434 191.613 13.1473 185.808 10.2822C184.386 9.60481 182.747 9.08326 181.209 9.48289C177.49 10.4515 176.901 15.4638 177.382 19.284C178.843 30.9021 182.907 42.0409 189.269 51.8709C190.17 53.2256 191.979 54.7564 193.212 53.6794C193.467 53.3836 193.658 53.0386 193.775 52.6658C193.891 52.2931 193.93 51.9003 193.889 51.5119C193.96 47.0956 193.111 42.7129 191.396 38.6425C188.28 31.1375 181.284 24.3234 173.183 24.9534C171.09 25.1159 168.78 26.01 168.069 27.9811C167.788 28.9547 167.746 29.9817 167.947 30.9749C169.122 39.1426 173.423 46.5349 179.942 51.5932C180.789 50.6653 180.532 49.2158 180.193 48.0033C175.855 32.8478 166.33 19.6981 153.282 10.8511" stroke="black" stroke-miterlimit="10" stroke-linecap="round"/>
<path d="M192.521 73.085H224.607" stroke="black" stroke-miterlimit="10"/>
<path d="M192.521 79.1064H236.84" stroke="black" stroke-miterlimit="10"/>
</g>
<defs>
<clipPath id="clip0">
<rect width="250" height="260.621" fill="white"/>
</clipPath>
</defs>
</svg>
